<svg id="visual" viewBox="0 0 3840 2160" width="3840" height="2160" xmlns="http://www.w3.org/2000/svg" xmlns:xlink="http://www.w3.org/1999/xlink" version="1.1"><rect x="0" y="0" width="3840" height="2160" fill="#001220"></rect><path d="M0 1430L91.5 1422.8C183 1415.7 366 1401.3 548.8 1414.5C731.7 1427.7 914.3 1468.3 1097.2 1451.3C1280 1434.3 1463 1359.7 1645.8 1333.5C1828.7 1307.3 2011.3 1329.7 2194.2 1378.2C2377 1426.7 2560 1501.3 2742.8 1545.7C2925.7 1590 3108.3 1604 3291.2 1557.7C3474 1511.3 3657 1404.7 3748.5 1351.3L3840 1298L3840 2161L3748.5 2161C3657 2161 3474 2161 3291.2 2161C3108.3 2161 2925.7 2161 2742.8 2161C2560 2161 2377 2161 2194.2 2161C2011.3 2161 1828.7 2161 1645.8 2161C1463 2161 1280 2161 1097.2 2161C914.3 2161 731.7 2161 548.8 2161C366 2161 183 2161 91.5 2161L0 2161Z" fill="#fa7268"></path><path d="M0 1551L91.5 1558.8C183 1566.7 366 1582.3 548.8 1609.3C731.7 1636.3 914.3 1674.7 1097.2 1670.8C1280 1667 1463 1621 1645.8 1583.3C1828.7 1545.7 2011.3 1516.3 2194.2 1539C2377 1561.7 2560 1636.3 2742.8 1630.7C2925.7 1625 3108.3 1539 3291.2 1527.2C3474 1515.3 3657 1577.7 3748.5 1608.8L3840 1640L3840 2161L3748.5 2161C3657 2161 3474 2161 3291.2 2161C3108.3 2161 2925.7 2161 2742.8 2161C2560 2161 2377 2161 2194.2 2161C2011.3 2161 1828.7 2161 1645.8 2161C1463 2161 1280 2161 1097.2 2161C914.3 2161 731.7 2161 548.8 2161C366 2161 183 2161 91.5 2161L0 2161Z" fill="#ef5f67"></path><path d="M0 1758L91.5 1747.8C183 1737.7 366 1717.3 548.8 1700C731.7 1682.7 914.3 1668.3 1097.2 1652.5C1280 1636.7 1463 1619.3 1645.8 1639C1828.7 1658.7 2011.3 1715.3 2194.2 1741.3C2377 1767.3 2560 1762.7 2742.8 1757.5C2925.7 1752.3 3108.3 1746.7 3291.2 1736C3474 1725.3 3657 1709.7 3748.5 1701.8L3840 1694L3840 2161L3748.5 2161C3657 2161 3474 2161 3291.2 2161C3108.3 2161 2925.7 2161 2742.8 2161C2560 2161 2377 2161 2194.2 2161C2011.3 2161 1828.7 2161 1645.8 2161C1463 2161 1280 2161 1097.2 2161C914.3 2161 731.7 2161 548.8 2161C366 2161 183 2161 91.5 2161L0 2161Z" fill="#e34c67"></path><path d="M0 1903L91.5 1899.7C183 1896.3 366 1889.7 548.8 1875.8C731.7 1862 914.3 1841 1097.2 1844.2C1280 1847.3 1463 1874.7 1645.8 1876.8C1828.7 1879 2011.3 1856 2194.2 1864.2C2377 1872.3 2560 1911.7 2742.8 1908.3C2925.7 1905 3108.3 1859 3291.2 1830.2C3474 1801.3 3657 1789.7 3748.5 1783.8L3840 1778L3840 2161L3748.5 2161C3657 2161 3474 2161 3291.2 2161C3108.3 2161 2925.7 2161 2742.8 2161C2560 2161 2377 2161 2194.2 2161C2011.3 2161 1828.7 2161 1645.8 2161C1463 2161 1280 2161 1097.2 2161C914.3 2161 731.7 2161 548.8 2161C366 2161 183 2161 91.5 2161L0 2161Z" fill="#d53867"></path><path d="M0 1954L91.5 1948.2C183 1942.3 366 1930.7 548.8 1949.5C731.7 1968.3 914.3 2017.7 1097.2 2016C1280 2014.3 1463 1961.7 1645.8 1937.2C1828.7 1912.7 2011.3 1916.3 2194.2 1941.8C2377 1967.3 2560 2014.7 2742.8 2036.5C2925.7 2058.3 3108.3 2054.7 3291.2 2030.7C3474 2006.7 3657 1962.3 3748.5 1940.2L3840 1918L3840 2161L3748.5 2161C3657 2161 3474 2161 3291.2 2161C3108.3 2161 2925.7 2161 2742.8 2161C2560 2161 2377 2161 2194.2 2161C2011.3 2161 1828.7 2161 1645.8 2161C1463 2161 1280 2161 1097.2 2161C914.3 2161 731.7 2161 548.8 2161C366 2161 183 2161 91.5 2161L0 2161Z" fill="#c62368"></path></svg>